<?xml version="1.0" encoding="utf-8"?>
<!-- Generator: Adobe Illustrator 21.1.0, SVG Export Plug-In . SVG Version: 6.00 Build 0)  -->
<svg version="1.1" xmlns="http://www.w3.org/2000/svg" xmlns:xlink="http://www.w3.org/1999/xlink" x="0px" y="0px"
	 viewBox="0 0 1145.4 500.4" style="enable-background:new 0 0 1145.4 500.4;" xml:space="preserve">
<style type="text/css">
	.st0{fill:none;}
	.st1{font-family:'ADAM.CGPRO';}
	.st2{font-size:144px;}
	.st3{clip-path:url(#SVGID_2_);}
	.st4{clip-path:url(#SVGID_4_);fill:#DF2528;}
</style>
<g id="Layer_1">
</g>
<g id="Default">
	<rect x="-282" y="542.4" class="st0" width="72" height="128.5"/>
	<text transform="matrix(1 0 0 1 -281.9859 554.4877)"><tspan x="0" y="0" style="font-family:'MyriadHebrew-Regular'; font-size:17px;">R : 224</tspan><tspan x="0" y="20.4" style="font-family:'MyriadHebrew-Regular'; font-size:17px;">G: 34</tspan><tspan x="0" y="40.8" style="font-family:'MyriadHebrew-Regular'; font-size:17px;">B : 39</tspan><tspan x="0" y="81.6" style="font-family:'MyriadHebrew-Regular'; font-size:17px;">#E02227</tspan></text>
	<rect id="_x3C_Slice_x3E_" x="-0.9" y="0.2" class="st0" width="506.9" height="501.8"/>
	<text transform="matrix(1 0 0 1 379.2308 306.2512)" class="st1 st2">Ezra Box</text>
</g>
<g id="Layer_3">
	<g id="Ezra_Box_Symbol_3">
		<g>
			<defs>
				<rect id="SVGID_1_" x="59.4" y="82.5" width="296.2" height="337.2"/>
			</defs>
			<clipPath id="SVGID_2_">
				<use xlink:href="#SVGID_1_"  style="overflow:visible;"/>
			</clipPath>
			<g class="st3">
				<defs>
					<rect id="SVGID_3_" x="59.4" y="82.5" width="296.2" height="337.2"/>
				</defs>
				<clipPath id="SVGID_4_">
					<use xlink:href="#SVGID_3_"  style="overflow:visible;"/>
				</clipPath>
				<path class="st4" d="M193.7,401.3l-28.5-16.5h0.1l-43.3-25l-44.3-25.6c-1.7-1.1-3.1-3.5-3.1-5.6v-2.1c0,0,0-0.1,0-0.1l0-46.8
					c0-2.1,1.5-2.9,3.3-1.9l4.9,2.8v0l96.3,55.5c4.5,2.6,8.2,0.8,8.2-4c0-4.8-3.7-10.8-8.2-13.4l-26-15l-75.2-43.4
					c-1.8-1-3.3-3.6-3.3-5.7l0-46.8c0,0,0,0,0-0.1v-2.1c0-2,1.3-2.8,3-2l116.2,67.1c4.5,2.6,8.2,0.9,8.2-3.8
					c0-4.7-3.7-10.7-8.2-13.3L67.7,181.1c-4.5-2.6-8.2-0.9-8.2,3.8c0,0.1,0,0.1,0,0.2c0,0.3-0.1,0.6-0.1,1l-0.1,144.6
					c0,0.7,0.1,1.4,0.2,2.2c0.1,4.7,3.7,10.4,8.1,13l125.9,72.7c4.5,2.6,8.2,0.9,8.2-3.8C201.8,409.9,198.1,403.9,193.7,401.3"/>
				<path class="st4" d="M67.7,160c-4.5,2.6-4.5,6.9,0,9.4l130.9,75.7c4.5,2.6,11.8,2.6,16.3,0l131-75.7c4.5-2.6,4.5-6.8,0-9.4
					l-131-75.6c-4.5-2.6-11.8-2.6-16.3,0L67.7,160z"/>
				<path class="st4" d="M355.5,185.5c0-5.2-3.7-7.3-8.2-4.7l-125.8,72.6c-4.5,2.6-8.2,9-8.2,14.1l0,145.4c0,5.2,3.7,7.3,8.2,4.7
					l126-72.7c4.5-2.6,8.2-9,8.2-14.1L355.5,185.5z M340.7,326.2C340.7,326.2,340.7,326.3,340.7,326.2l0,2.2c0,2.1-1.5,4.6-3.3,5.7
					l-106,61.2c-1.8,1-3.3,0.2-3.3-1.9v-46.8c0,0,0-0.1,0-0.1v-2.1c0-2.1,1.5-4.6,3.3-5.7l106.1-61.2c1.8-1,3.3-0.2,3.3,1.9
					L340.7,326.2z M340.7,254.5c0,2.1-1.5,4.6-3.3,5.7l-106,61.2c-1.8,1-3.3,0.2-3.3-1.9v-2.1c0,0,0,0,0-0.1v-46.8
					c0-2.1,1.5-4.6,3.3-5.7l106.1-61.2c1.8-1,3.3-0.2,3.3,1.9v2.1c0,0,0,0,0,0.1L340.7,254.5z"/>
			</g>
		</g>
	</g>
</g>
</svg>
